<svg width="30" height="30" viewBox="0 0 30 30" fill="none" xmlns="http://www.w3.org/2000/svg">
<path fill-rule="evenodd" clip-rule="evenodd" d="M12.622 22.929C6.7236 22.929 1.94208 18.2307 1.94208 12.4258C1.94208 6.62083 6.7236 1.91314 12.622 1.91314C18.5204 1.91314 23.3029 6.62083 23.3029 12.4258C23.3029 18.2307 18.5204 22.929 12.622 22.929ZM29.7152 28.3683L21.9703 20.744C23.9977 18.5402 25.244 15.633 25.244 12.4258C25.244 5.56112 19.5932 0 12.622 0C5.65083 0 0 5.56112 0 12.4258C0 19.2811 5.65083 24.8422 12.622 24.8422C15.634 24.8422 18.3966 23.8013 20.5666 22.0663L28.3423 29.7187C28.7221 30.0938 29.3363 30.0938 29.7152 29.7187C30.0949 29.3529 30.0949 28.7434 29.7152 28.3683Z" fill="black"/>
</svg>
